@startuml
'https://plantuml.com/class-diagram
class Landing_Page{
Tema_Pagina
Mesaj:"Welcome to CarHub!"
Afiseaza_Tema_Pagina ()
Afiseaza_Div_Landing_Page()
Afiseaza_Popup_Email_Parola_Gresite ()
Afiseaza_Popup_Email_Existent ()
}

class Div_Landing_Page {
Inaltime
Latime
Culoare_Fundal
Afiseaza_Formular_Autentificare ()
Afiseaza_Formular_Inregistrare ()
}

class Formular_Autentificare{
Inaltime
Latime
Mesaj:"Ai cont?Autentifica-te"
Afiseaza_Button_Uitat_Parola ()
Afiseaza_Button_Autentificare()
Afiseaza_Checkbutton_Tine_Minte ()
Afiseaza_Textbox_Email ()
Afiseaza_Textbox_Parola ()
}

class Textbox_Email{
Inaltime
Latime
Nr_Maxim_Caractere
Email
Afiseaza_Caractere()
Set_Email ()
Get_Parola ()
Limiteaza_Caractere ()
Incrementeaza_Nr_Caractere ()
Afiseaza_Popup_Required ()
}

class Textbox_Parola{
Inaltime
Latime
Nr_Maxim_Caractere
Parola
Set_Parola ()
Get_Parola ()
Limiteaza_Caractere ()
Incrementeaza_Nr_Caractere ()
Afiseaza_Popup_Required ()
}

class Checkbutton_Tine_Minte{
Stare
Mesaj
Trimite_Request_Memorare_Email ()
Trimite_Request_Memorare_Parola ()
}

class Button_Autentificare{
Inaltime
Latime
Text
Culoare
Trimite_Request_Verificare_Email ()
Trimite_Request_Verificare_Parola ()
Deschide_HomePage()
}

class Button_Uitat_Parola{
Inaltime
Latime
Culoare
Text
Deschide_Pagina_Schimbare_Parola()
}

class Pagina_Resetare_Parola {
Tema_Pagina
Afiseaza_Tema_Pagina ()
Afiseaza_Textbox_Email ()
Afiseaza_Textbox_Parola_Noua ()
Afiseaza_Textbox_Confirmare_Parola_Noua()
Afiseaza_Button_Schimba_Parola ()
Afiseaza_Popup_Parola_Schimbata ()
}

class Textbox_Parola_Noua {
Inaltime
Latime
Nr_Maxim_Caractere
Parola
Set_Parola ()
Get_Parola ()
Limiteaza_Caractere ()
Incrementeaza_Nr_Caractere ()
Afiseaza_Popup_Required ()
}

class Textbox_Confirmare_Parola_Noua {
Inaltime
Latime
Nr_Maxim_Caractere
Parola
Set_Parola ()
Get_Parola ()
Limiteaza_Caractere ()
Incrementeaza_Nr_Caractere ()
Afiseaza_Popup_Required ()
}

class Button_Schimba_Parola {
Latime
Inaltime
Text
Culoare
Trimite_Parola_Noua_la_Baza_Date ()
Deschide_Landing_Page ()
}

class Popup_Parola_Schimbata {
Mesaj
Inaltime
Latime
Timp_Expirare
Afiseaza_Mesaj ()
}

class Popup_Required {
Mesaj
Inaltime
Latime
Afiseaza_Mesaj ()
}

class Popup_Email_Existent {
Mesaj
Inaltime
Latime
Afiseaza_Mesaj ()
}

class Cont_Utilizator{
Creaza_Contul()
Get_Parola_Noua()
Inregistreaza_Cont ()
Verifica_Email_Duplicat ()
Deconecteaza_Cont ()
}

class Email_Cont {
Email
Nr_Caractere
Memoreaza_Email_Cont ()
}

class Parola_Cont {
Parola
Nr_Caractere
Memoreaza_Parola_Cont ()
}

class Formular_Inregistrare{
Inaltime
Latime
Mesaj:"Nu ai cont?Creaza unul"
Afiseaza_Textbox_Email ()
Afiseaza_Textbox_Parola ()
Afiseaza_Textbox_Confirmare_Parola ()
Afiseaza_Button_Inregistrare ()
}

class Textbox_Confirmare_Parola {
Inaltime
Latime
Nr_Maxim_Caractere
Parola
Set_Parola ()
Get_Parola ()
Limiteaza_Caractere ()
Afiseaza_Popup_Required ()
Incrementeaza_Nr_Caractere ()
}

class Button_Inregistrare{
Inaltime
Latime
Culoare
Text
Trimite_Email_la_Baza_Date ()
Trimite_Parola_la_Baza_Date ()
}

class Baza_Date_Conturi{
Lista_Conturi
Stocheaza_Conturile()
Sterge_Cont_Baza_Date()

}

class Popup_Email_Parola_Gresite{
Mesaj
Inaltime
Latime
Afiseaza_Mesaj()
Afiseaza_Button_Reincearca ()
}

class Buton_Reincearca{
Inaltime
Latime
Culoare
Text
Inchide_Popup()
}

class HomePage{
Tema_Pagina
Afiseaza_Tema_Pagina ()
Afiseaza_Divuri_Stiri ()
Afiseaza_Navbar()
Incarca_Divuri_Stiri()
}

class Navbar {
Culoare_Fundal
Inaltime
Latime
Afiseaza_Button_Profil_Utilizator ()
Afiseaza_Button_Comparare ()
Afiseaza_Button_Forum ()
}

class Div_Stire{
Inaltime
Latime
Poza_Stire
Descriere_Stire
Afiseaza_Poza_Stire ()
Afiseaza_Descriere_Stire ()
Deschide_Pagina_Stire ()
}

class Pagina_Stire {
Tema_Pagina
Info_Stire
Afiseaza_Tema_Pagina ()
Afiseaza_Info_Stire()
}

class Button_Profil_Utilizator {
Inaltime
Latime
Text
Culoare
Deschide_Pagina_Profil_Utilizator ()
}

class Pagina_Profil_Utilizator {
Tema_Pagina
Afiseaza_Tema_Pagina ()
Afiseaza_Div_Detalii_Cont ()
}

class Button_Comparare {
Inaltime
Latime
Text
Culoare
Deschide_Pagina_Comparare ()
}

class Pagina_Comparare {
Tema_Pagina
Afiseaza_Tema_Pagina()
Afiseaza_Div_Pagina_Comparare ()
}

class Button_Forum {
Inaltime
Latime
Text
Cculoare
Deschide_Pagina_Forum ()
}

class Pagina_Forum {
Tema_Pagina
Afiseaza_Tema_Pagina()
Afiseaza_Searchbar ()
Afiseaza_Div_Subiect ()
Afiseaza_Button_Scrie_Topic ()
}

class Poza_Profil_Cont{
Forma
Latime
Inaltime
Memoreaza_Poza_Profil_Cont ()
}

class Nume_Cont {
Nume
Font
Memoreaza_Nume_Cont ()
}

class Info_Masina {
Brand_Masina
Model_Masina
An_Fabricatie
Motorizare
Memoreaza_Info_Masina ()
}

class Descriere_Cont {
Limita_Caractere
Text
Memoreaza_Descriere_Cont ()
}

class Button_Editare_Profil {
Inaltime
Latime
Text
Culoare
Permite_Editare_Campuri ()
}

class Button_Setari_App {
Inaltime
Latime
Text
Culoare
Deschide_Pagina_Setari_App ()
}

class Pagina_Setari_App {
Tema_Pagina
Afiseaza_Tema_Pagina ()
Afiseaza_Switchbutton_Schimba_Tema_Pagina ()
Afiseaza_Button_Stergere_Cont ()
}

class Div_Detalii_Cont {
Inaltime
Latime
Afiseaza_Info_Masina ()
Afiseaza_Descriere_Cont ()
Afiseaza_Poza_Profil_Cont ()
Afiseaza_Nume_Cont ()
Afiseaza_Button_Setari_App ()
Afiseaza_Button_Editare_Profil ()
}

class Button_Salveaza_Modificari {
Inaltime
Latime
Text
Culoare
Send_Info_DataBase ()
}

class Switchbutton_Schimba_Tema_Pagina {
Inaltime
Latime
Text
Culoare
Optiune
Trimite_Request_Tema_Selectata ()
}

class Button_Stergere_Cont {
Inaltime
Latime
Text
Culoare
Deschide_Fereastra_Confirmare()
}

class Fereastra_Confirmare {
Inaltime
Latime
Afiseaza_Button_Confirmare_Stergere_Cont()
}

class Button_Confirmare_Stergere_Cont {
Inaltime
Latime
Text
Culoare
Trimite_Request_Stergere_Email_si_Parola ()
}

class Div_Pagina_Comparare {
Inaltime
Latime
Culoare_fundal
Afiseaza_Tabel_Masina_A ()
Afiseaza_Tabel_Masina_B ()
}

class Tabel_Masina_A{
Inaltime
Latime
Text:Masina A
Afiseaza_Dropdown_Marca_Masina ()
Afiseaza_Dropdown_Model_Masina ()
Afiseaza_Dropdown_Motorizare_Masina()
Afiseaza_Dropdown_Tip_Caroserie_Masina()
}

class Tabel_Masina_B {
Inaltime
Latime
Text:Masina B
Afiseaza_Dropdown_Marca_Masina ()
Afiseaza_Dropdown_Model_Masina ()
Afiseaza_Dropdown_Motorizare_Masina()
Afiseaza_Dropdown_Tip_Caroserie_Masina()
}

class Button_Start_Comparare {
Inaltime
Latime
Text
Culoare
Trimite_Requet_Afisare_Comparare ()
}

class Dropdown_Marca_Masina {
Lista_Marci_Masini
Afiseaza_Lista_Marci_Masini()
Memoreaza_Optiunea_Selectata()
}

class Dropdown_Model_Masina {
Lista_Modele_Masini
Afiseaza_Lista_Modele_Masini ()
Memoreaza_Optiunea_Selectata()
}

class Dropdown_Tip_Caroserie_Masina {
Lista_Tip_Caroserii_Masini
Afiseaza_Lista_Tip_Caroserii_Masini ()
Memoreaza_Optiunea_Selectata()
}

class Dropdown_Motorizare_Masina {
Lista_Motorizari_Masini
Afiseaza_Lista_Motorizari_Masini()
Memoreaza_Optiunea_Selectata()
}

class Div_Subiect {
Inaltime
Latime
Titlu_Subiect
Autor
Deschide_Pagina_Discutii ()
Afiseaza_Titlu_Subiect ()
Afiseaza_Autor ()
}

class Searchbar{
Inaltime
Latime
Input_Text
Memoreaza_Input_Text ()
Cauta_Input_Text ()
Face_Request_DB ()
Afiseaza_Pagina_Rezultate_Cautari ()
}

class Pagina_Rezultate_Cautari {
Tema_Pagina
Lista_Cautari
Afiseaza_Tema_Pagina ()
Afiseaza_Lista_Cautari ()
}

class Button_Scrie_Topic {
Inaltime
Latime
Culoare
Iconita
Deschide_Fereastra_Scrie_Topic ()
}

class Pagina_Subiect {
Titlu_Subiect
Autor
Text_Discutie
Data_Postare
Afiseaza_Titlu_Subiect ()
Afiseaza_Autor ()
Afiseaza_Text_Discutie ()
Afiseaza_Data_Postare ()
}

class Div_Replici_Discutie {
Inaltime
Latime
Text
Afiseaza_Text ()
}

class Textbox_Replica {
Inaltime
Latime
Input
Set_Input ()
Get_Input ()
Limiteaza_Caractere ()
Incrementeaza_Nr_Caractere ()
}

class Button_Trimite_Replica {
Inaltime
Latime
Culoare
Text
Incarca_Input_Replica ()
}

class Fereastra_Scrie_Topic {
Inaltime
Latime
Afiseaza_Textbox_Titlu ()
Afiseaza_Textbox_Subiect ()
Afiseaza_Button_Incarca_Postare ()
}

class Textbox_Titlu {
Inaltime
Latime
Input
Set_Input ()
Get_Input ()
Limiteaza_Caractere ()
Incrementeaza_Nr_Caractere ()
}

class Textbox_Subiect {
Inaltime
Latime
Input
Set_Input ()
Get_Input ()
Limiteaza_Caractere ()
Incrementeaza_Nr_Caractere ()
}

class Button_Incarca_Postare {
Inaltime
Latime
Culoare
Text
Incarca_Input_Subiect()
}

Landing_Page "1" *-- "1" Div_Landing_Page
Landing_Page "1" o-- "1" Popup_Email_Parola_Gresite
Landing_Page "1" o-- "1" Popup_Email_Existent
Div_Landing_Page "1" *-- "1" Formular_Autentificare
Div_Landing_Page "1" *-- "1" Formular_Inregistrare
Formular_Autentificare "1" *-- "1" Textbox_Email
Formular_Autentificare "1" *-- "1" Textbox_Parola
Formular_Autentificare "1" *-- "1" Checkbutton_Tine_Minte
Formular_Autentificare "1" *-- "1" Button_Uitat_Parola
Formular_Autentificare "1" *-- "1" Button_Autentificare
Button_Uitat_Parola .. Pagina_Resetare_Parola:click
Button_Autentificare .. HomePage:click
Formular_Inregistrare "1" *-- "1" Textbox_Email
Formular_Inregistrare "1" *-- "1" Textbox_Parola
Formular_Inregistrare "1" *-- "1" Textbox_Confirmare_Parola
Formular_Inregistrare "1" *-- "1" Button_Inregistrare
Textbox_Confirmare_Parola "1" o-- "1" Popup_Required
Textbox_Parola  "1" o-- "1" Popup_Required
Textbox_Email  "1" o-- "1" Popup_Required
Textbox_Parola_Noua  "1" o-- "1" Popup_Required
Textbox_Confirmare_Parola_Noua  "1" o-- "1" Popup_Required
Pagina_Resetare_Parola "1" *-- "1" Popup_Parola_Schimbata
Baza_Date_Conturi "1" o-- "0..n" Cont_Utilizator
Cont_Utilizator "1" *-- "1" Email_Cont
Cont_Utilizator "1" *-- "1" Parola_Cont
Cont_Utilizator "1" *-- "1" Nume_Cont
Cont_Utilizator "1" *-- "0..n" Info_Masina
Cont_Utilizator "1" *-- "0..1" Descriere_Cont
Cont_Utilizator "1" *-- "0..1" Poza_Profil_Cont
Popup_Email_Parola_Gresite "1" *-- "1" Buton_Reincearca
HomePage "1" *-- "1" Navbar
HomePage "1" *-- "1" Div_Stire
Div_Stire .. Pagina_Stire:click
Navbar "1" *-- "1" Button_Profil_Utilizator
Navbar "1" *-- "1" Button_Comparare
Navbar "1" *-- "1" Button_Forum
Button_Profil_Utilizator .. Pagina_Profil_Utilizator:click
Button_Comparare .. Pagina_Comparare:click
Button_Forum .. Pagina_Forum:click
Pagina_Profil_Utilizator "1" *-- "1" Div_Detalii_Cont
Div_Detalii_Cont "1" *-- "1" Button_Editare_Profil
Div_Detalii_Cont "1" *-- "1" Button_Setari_App
Div_Detalii_Cont "1" *-- "0..1" Poza_Profil_Cont
Div_Detalii_Cont "1" *-- "1" Nume_Cont
Div_Detalii_Cont "1" *-- "0..1" Info_Masina
Div_Detalii_Cont "1" *-- "0..1" Descriere_Cont
Div_Detalii_Cont "1" o-- "1" Button_Salveaza_Modificari
Button_Setari_App .. Pagina_Setari_App:click
Pagina_Setari_App "1" *-- "1" Switchbutton_Schimba_Tema_Pagina
Pagina_Setari_App "1" *-- "1" Button_Stergere_Cont
Button_Stergere_Cont .. Fereastra_Confirmare :click
Fereastra_Confirmare "1" *-- "1" Button_Confirmare_Stergere_Cont
Pagina_Comparare "1" *-- "1" Div_Pagina_Comparare
Div_Pagina_Comparare "1" *-- "1" Tabel_Masina_A
Div_Pagina_Comparare "1" *-- "1" Tabel_Masina_B
Div_Pagina_Comparare "1" *-- "1" Button_Start_Comparare
Tabel_Masina_A "1" *-- "1" Dropdown_Marca_Masina
Tabel_Masina_A "1" *-- "1" Dropdown_Model_Masina
Tabel_Masina_A "1" *-- "1" Dropdown_Motorizare_Masina
Tabel_Masina_A "1" *-- "1" Dropdown_Tip_Caroserie_Masina
Tabel_Masina_B "1" *-- "1" Dropdown_Marca_Masina
Tabel_Masina_B "1" *-- "1" Dropdown_Model_Masina
Tabel_Masina_B "1" *-- "1" Dropdown_Motorizare_Masina
Tabel_Masina_B "1" *-- "1" Dropdown_Tip_Caroserie_Masina
Pagina_Forum "1" *-- "0..n" Div_Subiect
Pagina_Forum "1" *-- "1" Searchbar
Pagina_Forum "1" *-- "1" Button_Scrie_Topic
Searchbar .. Pagina_Rezultate_Cautari :click
Div_Subiect .. Pagina_Subiect:Click
Pagina_Subiect "1" *-- "0..n" Div_Replici_Discutie
Pagina_Subiect "1" *-- "1" Textbox_Replica
Pagina_Subiect "1" *-- "1" Button_Trimite_Replica
Button_Scrie_Topic .. Fereastra_Scrie_Topic:click
Fereastra_Scrie_Topic "1" *-- "1" Textbox_Titlu
Fereastra_Scrie_Topic "1" *-- "1" Textbox_Subiect
Fereastra_Scrie_Topic "1" *-- "1" Button_Incarca_Postare
Pagina_Resetare_Parola "1" *-- "1" Textbox_Email
Pagina_Resetare_Parola "1" *-- "1" Textbox_Parola_Noua
Pagina_Resetare_Parola "1" *-- "1" Textbox_Confirmare_Parola_Noua
Pagina_Resetare_Parola "1" *-- "1" Button_Schimba_Parola

@enduml